#!OML:ASF H:\Terrain\Patient Classification 1\Walking\liu\liu.ASF
:FULLY-SPECIFIED
:DEGREES
404
root 9.681280 16.879801 20.435900 6.538590 -1.607720 -7.685660
lowerback -4.097125 1.632270 1.678610
upperback 0.132130 1.912930 2.060180
thorax 2.404275 0.962800 1.439945
lowerneck -9.657650 -3.064880 -6.698000
upperneck 10.607850 -3.914710 6.536600
head 5.574300 -1.577780 2.912815
rclavicle 0.000000 -0.000000
rhumerus -13.505550 7.534200 -42.416000
rradius 19.746149
rwrist -8.941850
rhand -15.130100 -10.519950
rfingers 3.562510
rthumb -1.784370 -25.494850
lclavicle 0.000000 -0.000000
lhumerus -26.731750 -4.635795 48.185150
lradius 13.551450
lwrist 4.116990
lhand -5.180900 -13.132450
lfingers 3.562510
lthumb 7.817600 1.561650
rfemur 8.782500 2.951275 16.637600
rtibia -0.000000
rfoot -3.882985 3.474505
rtoes -5.136050
lfemur -21.552601 -1.742790 -4.344225
ltibia 10.528750
lfoot -8.037550 6.763950
ltoes -6.247550
405
root 9.698170 16.860100 20.610001 6.663240 -1.636340 -7.551300
lowerback -4.270010 1.642820 1.585205
upperback 0.124857 1.928075 2.015460
thorax 2.490325 0.968190 1.458715
lowerneck -9.551900 -3.034440 -6.719450
upperneck 10.521750 -3.889185 6.611400
head 5.522600 -1.563340 2.947120
rclavicle 0.000000 0.000000
rhumerus -13.653050 7.545600 -42.543449
rradius 19.597151
rwrist -8.943650
rhand -14.947200 -10.972750
rfingers 3.562510
rthumb -1.607740 -25.950500
lclavicle 0.000000 0.000000
lhumerus -26.720350 -4.604080 48.128201
lradius 13.409750
lwrist 3.905535
lhand -3.744545 -10.410350
lfingers 3.562510
lthumb 9.200200 4.164510
rfemur 9.046800 2.937130 16.522850
rtibia -0.000000
rfoot -3.852415 3.499540
rtoes -4.991010
lfemur -21.548700 -1.200370 -4.843395
ltibia 10.866400
lfoot -7.774150 6.190000
ltoes -6.040750
406
root 9.718390 16.822001 20.777300 6.696500 -1.575420 -7.675310
lowerback -4.283240 1.639320 1.632730
upperback 0.069435 1.920210 2.020520
thorax 2.442670 0.965350 1.434670
lowerneck -9.439800 -3.054005 -6.767850
upperneck 10.499250 -3.912080 6.602400
head 5.498000 -1.582800 2.947885
rclavicle 0.000000 0.000000
rhumerus -13.871500 7.585550 -42.700550
rradius 19.405500
rwrist -9.062500
rhand -15.017400 -10.800850
rfingers 3.562510
rthumb -1.675530 -25.777550
lclavicle 0.000000 0.000000
lhumerus -26.839251 -4.486925 48.079250
lradius 13.405050
lwrist 3.629950
lhand -4.180020 -11.556750
lfingers 3.562510
lthumb 8.781200 3.056605
rfemur 9.371100 2.878275 16.570000
rtibia -0.000000
rfoot -3.744240 3.471220
rtoes -6.050700
lfemur -21.544600 -0.737395 -5.149750
ltibia 11.229300
lfoot -7.485050 5.583300
ltoes -6.553000
407
root 9.745040 16.793800 20.941401 6.747970 -1.397710 -7.933830
lowerback -4.214280 1.651275 1.836665
upperback 0.009405 1.924365 1.990575
thorax 2.356675 0.972250 1.282895
lowerneck -9.549550 -3.108995 -6.746750
upperneck 10.604750 -3.992285 6.595450
head 5.569850 -1.614330 2.931440
rclavicle -0.000000 -0.000000
rhumerus -14.066700 7.366100 -42.833801
rradius 19.253401
rwrist -8.957000
rhand -15.069600 -10.317650
rfingers 3.562510
rthumb -1.725945 -25.293550
lclavicle -0.000000 -0.000000
lhumerus -26.932949 -4.488855 48.024300
lradius 13.403500
lwrist 3.379840
lhand -3.377495 -10.421050
lfingers 3.562510
lthumb 9.553200 4.119730
rfemur 9.640600 2.775830 16.673250
rtibia -0.000000
rfoot -3.547375 3.456100
rtoes -7.377950
lfemur -21.531401 -0.427744 -5.301600
ltibia 11.595200
lfoot -7.188350 5.061000
ltoes -6.741750
408
root 9.788370 16.773300 21.114000 6.922580 -1.236280 -7.695670
lowerback -4.296780 1.647800 1.867765
upperback -0.021642 1.917550 1.882755
thorax 2.379960 0.970395 1.156380
lowerneck -9.670850 -3.143400 -6.704800
upperneck 10.644800 -4.034970 6.564200
head 5.611600 -1.629385 2.905485
rclavicle -0.000000 -0.000000
rhumerus -14.244050 7.167050 -42.927700
rradius 19.199551
rwrist -8.704250
rhand -14.996450 -10.389650
rfingers 3.562510
rthumb -1.655315 -25.366699
lclavicle -0.000000 -0.000000
lhumerus -26.917400 -4.531095 48.005100
lradius 13.334450
lwrist 3.209930
lhand -3.761855 -11.108550
lfingers 3.562510
lthumb 9.183550 3.467875
rfemur 9.850850 2.686580 16.440550
rtibia 0.000000
rfoot -3.352510 3.485055
rtoes -7.570600
lfemur -21.479950 -0.233161 -5.739400
ltibia 11.927000
lfoot -6.974000 4.630740
ltoes -6.645550
409
root 9.767760 16.746300 21.299700 6.955330 -1.627690 -7.913230
lowerback -4.407525 1.690225 1.679540
upperback -0.035585 1.983405 1.962165
thorax 2.408285 0.997940 1.359215
lowerneck -9.689450 -3.109220 -6.618300
upperneck 10.675700 -3.986325 6.461100
head 5.609550 -1.611110 2.859910
rclavicle 0.000000 0.000000
rhumerus -14.569500 7.153900 -43.048000
rradius 19.247000
rwrist -8.559100
rhand -14.759300 -11.071750
rfingers 3.562510
rthumb -1.426290 -26.052099
lclavicle 0.000000 0.000000
lhumerus -26.961599 -4.528665 48.043350
lradius 13.324250
lwrist 3.230345
lhand -4.667140 -12.640000
lfingers 3.562510
lthumb 8.312300 2.013975
rfemur 10.150500 2.835560 16.586849
rtibia -0.000000
rfoot -3.135850 3.472425
rtoes -7.853200
lfemur -21.314199 0.268752 -5.759450
ltibia 12.189750
lfoot -6.458200 4.402170
ltoes -6.152150
410
root 9.812160 16.733900 21.454399 7.380400 -1.489280 -7.928240
lowerback -4.425935 1.691900 1.838890
upperback -0.231461 1.981215 1.882535
thorax 2.230025 1.000085 1.178820
lowerneck -9.654800 -3.075100 -6.583400
upperneck 10.783700 -3.972585 6.492600
head 5.640800 -1.599440 2.873055
rclavicle -0.000000 0.000000
rhumerus -15.004400 7.061000 -43.253551
rradius 19.164150
rwrist -8.357400
rhand -14.523050 -11.743600
rfingers 3.562510
rthumb -1.198105 -26.726700
lclavicle -0.000000 0.000000
lhumerus -27.151350 -4.568075 48.038300
lradius 13.346800
lwrist 3.271470
lhand -3.113055 -10.179400
lfingers 3.562510
lthumb 9.807500 4.335820
rfemur 10.190650 2.796235 16.484850
rtibia 0.000000
rfoot -2.863505 3.515790
rtoes -7.769700
lfemur -21.469999 0.618230 -6.069500
ltibia 12.303250
lfoot -5.217000 4.463745
ltoes -6.077800
411
root 9.839190 16.738100 21.617599 7.658190 -1.610930 -7.911080
lowerback -4.448855 1.736720 1.886330
upperback -0.335894 2.042820 1.809260
thorax 2.141625 1.031330 1.080540
lowerneck -9.634100 -3.120440 -6.645050
upperneck 10.786950 -4.047320 6.587800
head 5.657750 -1.628470 2.908265
rclavicle -0.000000 -0.000000
rhumerus -15.242850 6.900650 -43.403252
rradius 18.943251
rwrist -8.174250
rhand -14.642900 -12.036450
rfingers 3.562510
rthumb -1.313845 -27.018200
lclavicle -0.000000 -0.000000
lhumerus -27.167850 -4.489805 47.896301
lradius 13.255300
lwrist 3.044495
lhand -3.199535 -10.470900
lfingers 3.562510
lthumb 9.724350 4.052750
rfemur 10.312400 2.856520 16.392050
rtibia 0.000000
rfoot -2.442420 3.523370
rtoes -7.814800
lfemur -21.576250 0.809940 -6.189700
ltibia 12.364550
lfoot -3.787180 5.070250
ltoes -6.889050
412
root 9.850740 16.757401 21.778500 7.862410 -1.661490 -7.624330
lowerback -4.446555 1.737275 1.664360
upperback -0.512505 2.076505 1.761340
thorax 1.943330 1.043950 1.148870
lowerneck -9.222200 -3.118100 -6.772350
upperneck 10.695350 -4.075200 6.689350
head 5.559050 -1.655455 2.964295
rclavicle 0.000000 -0.000000
rhumerus -15.710650 6.675800 -43.501350
rradius 18.828350
rwrist -7.972600
rhand -14.850600 -12.035450
rfingers 3.562510
rthumb -1.514465 -27.014549
lclavicle 0.000000 -0.000000
lhumerus -27.304399 -4.282390 47.785099
lradius 13.072850
lwrist 2.713080
lhand -3.404340 -10.776300
lfingers 3.562510
lthumb 9.527400 3.767015
rfemur 10.473750 2.855975 16.178101
rtibia -0.000000
rfoot -1.946065 3.555630
rtoes -7.704600
lfemur -21.668051 0.957340 -6.414250
ltibia 12.475950
lfoot -2.570395 5.459200
ltoes -7.203800
